<svg xmlns="http://www.w3.org/2000/svg" width="1101" height="500" viewBox="0 0 1101 500"><defs><style>.cls-1,.cls-2{fill:#fff;}.cls-2,.cls-6,.cls-7{stroke:#231f20;stroke-miterlimit:10;}.cls-3{fill:#231f20;}.cls-4{fill:#f0f;}.cls-5{fill:#f90;}.cls-6{fill:#0cf;}.cls-6,.cls-7{stroke-width:0.9px;}.cls-7{fill:#0c0;}</style></defs><g id="Layer_1" data-name="Layer 1"><rect class="cls-1" x="400.5" y="350" width="300" height="100"/><polygon class="cls-2" points="300.5 250 300.5 350 200.5 350 200.5 450 300.5 450 400.5 450 400.5 350 400.5 250 300.5 250"/><rect class="cls-2" x="300.49994" y="150" width="100" height="100"/><rect class="cls-2" x="500.5" y="350" width="100" height="100"/><polygon class="cls-2" points="400.5 150 400.5 50 100.5 50 0.5 50 0.5 150 0.5 350 0.5 450 100.5 450 200.5 450 200.5 350 100.5 350 100.5 150 400.5 150"/><polygon class="cls-2" points="800.5 250 800.5 350 900.5 350 900.5 450 800.5 450 700.5 450 700.5 350 700.5 250 800.5 250"/><rect class="cls-2" x="750.00006" y="200" width="100" height="100" transform="translate(1550.50012 450) rotate(-180)"/><polygon class="cls-2" points="700.5 150 700.5 50 1000.5 50 1100.5 50 1100.5 150 1100.5 350 1100.5 450 1000.5 450 900.5 450 900.5 350 1000.5 350 1000.5 150 700.5 150"/><rect class="cls-3" x="300.5" y="450" width="100" height="50"/><rect class="cls-3" x="700.5" y="450" width="100" height="50"/><rect class="cls-3" x="300.5" width="100" height="50"/><rect class="cls-3" x="700.5" width="100" height="50"/><path class="cls-1" d="M407.91,56.59847V92.99984H397.85137V69.1473a30.55954,30.55954,0,0,1-4.72412,3.00293,36.87476,36.87476,0,0,1-5.7251,2.19727V66.1932a24.182,24.182,0,0,0,7.88574-3.93066,16.03771,16.03771,0,0,0,4.39454-5.66407Z" transform="translate(-49.5 -50)"/><path class="cls-1" d="M814.47735,92.99984h-29.834a18.6859,18.6859,0,0,1,3.11328-8.313q2.6001-3.89355,9.75293-9.19189a29.02339,29.02339,0,0,0,5.59082-4.93164,5.52565,5.52565,0,0,0,1.22071-3.19825,3.73462,3.73462,0,0,0-1.208-2.79541,4.60579,4.60579,0,0,0-6.15234.03663,7.326,7.326,0,0,0-1.624,4.22363l-9.96094-.80567a15.85477,15.85477,0,0,1,2.14844-6.55517,9.97456,9.97456,0,0,1,4.40723-3.61328,19.944,19.944,0,0,1,7.873-1.25733,22.21682,22.21682,0,0,1,8.167,1.19629,9.94507,9.94507,0,0,1,4.58984,3.67432,9.71049,9.71049,0,0,1,1.67188,5.5542,11.37529,11.37529,0,0,1-1.916,6.25,26.27351,26.27351,0,0,1-6.9707,6.543q-3.00294,2.07569-4.01563,2.90527-1.01367.83056-2.38086,2.17285h15.52735Z" transform="translate(-49.5 -50)"/><g id="KWlzrX.tif"><path class="cls-4" d="M385.53733,534.57543c-.703,2.70366,2.35693,7.33632,5.27414,8.08546a6.85638,6.85638,0,0,1,4.20538,2.86636c1.74014,2.49953,3.54659,2.70223,6.09607,1.13672a47.65333,47.65333,0,0,1,5.9916-3.36919,8.27147,8.27147,0,0,0,4.40678-4.00738,13.58934,13.58934,0,0,0,.71437-2.7166c-.98489.2913-1.98131.5501-2.94772.89349-.294.10448-.51029.4371-.75362.674-.68365.66562-1.35077,1.34872-2.04652,2.00132-1.15875,1.08688-2.33835,1.48536-3.75127.31527a1.903,1.903,0,0,0-1.67992-.3452c-2.0888,1.3813-3.94228,1.11589-5.77347-.7989-1.38276,2.44224-2.71747,1.08309-3.94725.1297-.88578-.6867-1.54354-1.66246-2.40659-2.38546C387.86945,536.17556,386.71084,535.42607,385.53733,534.57543Z" transform="translate(-49.5 -50)"/><path class="cls-4" d="M415.20481,500.63325a36.79418,36.79418,0,0,1,1.82824,3.862,57.14814,57.14814,0,0,1,1.76714,6.20529,9.00707,9.00707,0,0,1-1.38269,7.73121c-1.39165,1.84569-1.95491,3.75752-.97608,6.02007a3.38956,3.38956,0,0,1-.77745,4.08064,15.45642,15.45642,0,0,1-4.66869,3.21182,6.19552,6.19552,0,0,0-3.55353,2.8621c-1.45027,2.4216-1.90613,2.46523-4.24154,1.08907a5.0119,5.0119,0,0,0-2.49524-.17769c-1.13282.03865-2.26249.17789-3.39272.28261-1.41441.13106-2.82606.32815-4.243.37646a2.07666,2.07666,0,0,1-1.507-.51959,7.457,7.457,0,0,1-1.17158-2.23744,3.4285,3.4285,0,0,0-2.98509-2.39642,6.06946,6.06946,0,0,1-4.84014-5.39892,1.746,1.746,0,0,1,.8255-1.25568,1.53755,1.53755,0,0,0,.7526-2.25941,6.67234,6.67234,0,0,0-.68314-1.546c-2.61787-3.19626-1.98373-6.66454-.88-10.15486.713-2.25457,1.50345-4.48645,2.33406-6.70037.1688-.44993.67273-.774,1.02216-1.156.3986.40649,1.00772.74931,1.15352,1.23225.34074,1.12854.36175,2.35257.69008,3.48634a33.59991,33.59991,0,0,0,1.77642,5.083c.67616,1.42453,3.08477,1.99784,4.85026,1.49669a6.60231,6.60231,0,0,0,4.14979-3.2336c.95963-1.69028,1.09321-1.6331,2.31332-.15531a11.004,11.004,0,0,0,6.4419,3.43113A3.47877,3.47877,0,0,0,411.4107,511.56c.86629-2.42919,1.44628-4.96155,2.12637-7.45585.30366-1.11371.55194-2.24254.82536-3.3645Zm-8.263,25.04329c1.86107.08332,4.32247-1.9547,4.55488-3.61911.19866-1.4227-1.27452-2.97258-2.45159-2.36192a20.19548,20.19548,0,0,0-4.42234,3.14822c-.94244.88-.48172,1.87973.70258,2.36751A13.23849,13.23849,0,0,0,406.94177,525.67654Zm-12.99471-.34341a3.13288,3.13288,0,0,0,.68476-2.11527c-.08916-1.13211-3.21979-3.52378-4.85384-3.60167-.21.168-1.03461.50229-1.09548.94237-.135.97639-.2392,2.29009.28909,2.94562" transform="translate(-49.5 -50)"/></g><g id="zBH2f9.tif"><path class="cls-5" d="M805.16231,548.27131c-5.24191.07113-10.20969-.92788-14.35786-3.60567-6.95185-4.48765-12.26455-11.58483-10.60327-21.50773.36252-2.16532,1.648-3.79993,2.7288-5.52975,1.34687-2.1557,2.67357-4.329,5.191-5.5584a10.5998,10.5998,0,0,1,5.637-1.06867,4.17,4.17,0,0,0,2.99379-.63143,7.69806,7.69806,0,0,1,3.729-1.82513.69053.69053,0,0,0,.72062-.58329.87038.87038,0,0,0-.571-.93737,16.46853,16.46853,0,0,0-1.73091-.6226c-.98935-.30792-1.87272-.88662-1.76053-1.95813.11352-1.08419,1.13749-1.44245,2.14423-1.51254a8.30884,8.30884,0,0,0,4.0165-1.069c.4249-.269.861-.47424,1.03993-1.026.45654-1.40756,1.48078-1.38208,2.56342-.856a1.67864,1.67864,0,0,1,.79353,2.65392c-.75684,1.12627-1.265,1.85062.21917,2.95373.99921.74266.17682,2.0789-.22385,3.1185-.15477.40156-.60855.80931-.29258,1.23418.34452.46324.95891.35053,1.41391.19524,3.30689-1.12861,5.82552.41241,8.27822,2.326a24.05965,24.05965,0,0,1,5.77824,7.33215,14.03472,14.03472,0,0,1,1.18105,4.34373c.366,1.92221.6269,3.867.86472,5.8104a9.3951,9.3951,0,0,1-1.15009,5.98431,28.607,28.607,0,0,1-5.22477,7.33948C814.698,546.7969,810.29662,548.788,805.16231,548.27131Zm-4.12391-16.60974a1.93479,1.93479,0,0,0-1.81489,1.39274c-.29585,1.29646-1.03293,1.56759-2.20517,1.38757a1.33232,1.33232,0,0,0-1.65289,1.07828c-.24923,1.27519-.64606,2.28882-2.08136,2.70876-.67124.19639-.873.97951-.66526,1.72081.13876.49509.30148.9884.91326,1.07857a1.22165,1.22165,0,0,0,1.31177-.83631,1.33474,1.33474,0,0,1,.98564-.83436,3,3,0,0,0,2.41774-1.85872c.28325-.611.68507-.54368,1.24134-.30947a3.33224,3.33224,0,0,0,4.13114-.70615.88674.88674,0,0,1,1.449-.06717c1.15977,1.13827,2.58066.97488,4.051,1.11558,1.60127.15323,3.45479.077,4.71669,1.496.43417.48825.732,1.27132,1.57157.89382a1.40992,1.40992,0,0,0,.68546-1.59474c-.099-.77471-.42729-1.49-1.35294-1.40724-1.31232.11732-1.64312-.61329-1.75583-1.69808-.12352-1.1888-.76885-2.07137-1.99012-1.51659-1.21361.55132-1.76643.165-2.26415-.824a2.06413,2.06413,0,0,0-2.20718-1.18747c-1.02518.079-1.40567.76394-1.7081,1.60348-.15771.4378-.07978,1.16694-.73469,1.16223-.55884-.004-.73187-.64558-.92007-1.09629C802.77214,532.433,802.31227,531.63349,801.0384,531.66157Zm-8.73751-12.75221a8.47134,8.47134,0,0,0-5.71154,3.1478,4.27965,4.27965,0,0,0-.708,4.69162,5.9558,5.9558,0,0,0,4.81785,3.43275c1.86364-.00572,3.25106-1.07143,4.06414-3.20538a10.62247,10.62247,0,0,0,.87782-2.88919C795.896,520.5132,794.94791,518.82451,792.30089,518.90936Zm23.87639,10.2647c2.28337.07023,4.62117-1.9502,4.42028-3.86976-.39988-3.82091-2.575-5.21087-5.7196-5.87254A2.97009,2.97009,0,0,0,810.986,521.961C810.26836,525.32711,812.299,529.31108,816.17728,529.17406Zm-11.2222-2.28362c.85864.07392,1.284-.21284,1.15729-1.04811a5.10922,5.10922,0,0,0-1.39611-2.99569,1.79927,1.79927,0,0,0-2.98447.32575,10.36219,10.36219,0,0,0-1.08,2.80893c-.21194.95585.33767,1.67425,1.32741,1.23838A3.74658,3.74658,0,0,1,804.95508,526.89044Zm2.31369,12.30853c-1.02515.10123-1.69554.42081-1.98378,1.15739-.39064.99826.3392,1.73316.88,2.38951.49981.6066,1.11656.16735,1.62645-.22156.403-.30734.918-.74629,1.2839-.12976.60206,1.0145,1.38772.96112,2.30861.666.70348-.22541,1.5148,1.06507,1.93766.20678.45285-.91915-1.00719-.8852-1.39654-1.57308C810.87092,539.83185,808.47327,540.45728,807.26877,539.199Zm-2.64966,1.65712a1.57253,1.57253,0,0,0-1.19639-1.27456,2.0885,2.0885,0,0,0-2.51028.86191c-.575.82721-1.03587,1.38753-2.218,1.20234-.95746-.15-1.4155.74826-1.66872,1.58744a.69469.69469,0,0,0,.53961.90065c.811.24822,1.64077.22127,2.05229-.613.52777-1.07,1.08921-.90774,1.987-.44818A2.19393,2.19393,0,0,0,804.61911,540.85609Z" transform="translate(-49.5 -50)"/></g></g><g id="Layer_3" data-name="Layer 3"><circle class="cls-6" cx="750.5" cy="400" r="45"/><circle class="cls-6" cx="750.5" cy="199.99996" r="45"/><circle class="cls-7" cx="350.5" cy="200" r="45"/><circle class="cls-7" cx="350.5" cy="400" r="45"/><circle class="cls-7" cx="350.5" cy="100" r="45"/><circle class="cls-7" cx="549.99944" cy="400" r="45"/><path class="cls-1" d="M400.29668,460.81283H382.18145v-8.17871l18.11523-21.53321h8.667V453.098h4.49218v7.71485h-4.49218v6.68945h-8.667Zm0-7.71485V441.83431L390.72491,453.098Z" transform="translate(-49.5 -50)"/><g id="KWlzrX.tif-2" data-name="KWlzrX.tif"><path class="cls-3" d="M819.24082,438.08463a57.161,57.161,0,0,0-1.76715-6.20532,36.80408,36.80408,0,0,0-1.82825-3.862q-.42123.05329-.8424.10645c-.27344,1.12195-.52167,2.25079-.82532,3.3645-.68012,2.49432-1.26013,5.02667-2.1264,7.45587a3.47875,3.47875,0,0,1-4.09876,2.33258,11.004,11.004,0,0,1-6.44189-3.43115c-1.22016-1.47778-1.3537-1.535-2.31336.15533a6.60216,6.60216,0,0,1-4.14978,3.23359c-1.7655.50116-4.17407-.07215-4.85022-1.49671a33.5952,33.5952,0,0,1-1.77643-5.08294c-.32837-1.13379-.34936-2.35779-.69012-3.48633-.14581-.483-.75488-.82581-1.1535-1.23224-.34943.382-.85334.70605-1.02216,1.156-.83063,2.21393-1.62109,4.44581-2.33405,6.70038-1.10376,3.4903-1.73791,6.95862.88,10.15485a6.67415,6.67415,0,0,1,.68316,1.546,1.53754,1.53754,0,0,1-.75262,2.2594,1.746,1.746,0,0,0-.8255,1.25567,5.63785,5.63785,0,0,0,1.546,3.5188c-.37323,1.71656.27154,3.82,1.36517,5.79413-.37121,2.73584,2.54267,7.00647,5.3349,7.72351a6.85649,6.85649,0,0,1,4.20539,2.86634c1.74017,2.49957,3.54663,2.70227,6.09606,1.13677a47.65012,47.65012,0,0,1,5.99164-3.3692,8.27165,8.27165,0,0,0,4.40674-4.00738,13.58682,13.58682,0,0,0,.71436-2.71662c-.27607.08167-.55317.1604-.83008.23951a21.11672,21.11672,0,0,0,3.768-5.95484,4.946,4.946,0,0,0,.46094-2.28869l.03949-.03431a3.38957,3.38957,0,0,0,.77741-4.08062c-.97883-2.26258-.41553-4.17438.97607-6.02008A9.0071,9.0071,0,0,0,819.24082,438.08463Z" transform="translate(-49.5 -50)"/><path class="cls-4" d="M785.978,461.95952c-.70295,2.70367,2.35693,7.33632,5.27414,8.08546a6.85632,6.85632,0,0,1,4.20538,2.86636c1.74014,2.49953,3.5466,2.70223,6.09607,1.13672a47.654,47.654,0,0,1,5.9916-3.36919,8.27145,8.27145,0,0,0,4.40678-4.00737,13.58835,13.58835,0,0,0,.71437-2.7166c-.98489.29129-1.9813.55009-2.94771.89348-.294.10448-.51029.4371-.75363.674-.68365.66562-1.35077,1.34872-2.04652,2.00132-1.15874,1.08688-2.33835,1.48536-3.75126.31527a1.903,1.903,0,0,0-1.67993-.3452c-2.0888,1.3813-3.94227,1.11589-5.77347-.7989-1.38276,2.44224-2.71747,1.08309-3.94725.1297-.88578-.6867-1.54353-1.66246-2.40658-2.38545C788.31007,463.55965,787.15146,462.81016,785.978,461.95952Z" transform="translate(-49.5 -50)"/><path class="cls-4" d="M815.64544,428.01734a36.7941,36.7941,0,0,1,1.82823,3.862,57.14593,57.14593,0,0,1,1.76715,6.20529,9.00707,9.00707,0,0,1-1.3827,7.73121c-1.39165,1.84569-1.95491,3.75752-.97607,6.02007a3.38957,3.38957,0,0,1-.77745,4.08064,15.45646,15.45646,0,0,1-4.6687,3.21182,6.19552,6.19552,0,0,0-3.55353,2.8621c-1.45027,2.4216-1.90612,2.46523-4.24154,1.08907a5.0119,5.0119,0,0,0-2.49524-.17769c-1.13282.03865-2.26249.1779-3.39271.28261-1.41441.13106-2.82606.32815-4.243.37646a2.07668,2.07668,0,0,1-1.507-.51959,7.457,7.457,0,0,1-1.17158-2.23744,3.4285,3.4285,0,0,0-2.98509-2.39642,6.06948,6.06948,0,0,1-4.84014-5.39892,1.746,1.746,0,0,1,.8255-1.25568,1.53756,1.53756,0,0,0,.75261-2.25941,6.67276,6.67276,0,0,0-.68314-1.546c-2.61788-3.19626-1.98374-6.66454-.88-10.15486.713-2.25457,1.50345-4.48645,2.33406-6.70037.16881-.44993.67273-.774,1.02217-1.156.39859.40649,1.00771.74931,1.15352,1.23225.34073,1.12854.36174,2.35257.69007,3.48635a33.60071,33.60071,0,0,0,1.77643,5.083c.67615,1.42452,3.08476,1.99783,4.85025,1.49668a6.60231,6.60231,0,0,0,4.14979-3.2336c.95964-1.69028,1.09322-1.63309,2.31332-.15531a11.004,11.004,0,0,0,6.4419,3.43113,3.47879,3.47879,0,0,0,4.09878-2.33258c.86628-2.42919,1.44628-4.96155,2.12636-7.45585.30366-1.11371.55194-2.24254.82536-3.3645Zm-8.26305,25.04329c1.86107.08332,4.32247-1.95469,4.55489-3.61911.19866-1.4227-1.27453-2.97258-2.4516-2.36192a20.19518,20.19518,0,0,0-4.42233,3.14822c-.94245.88-.48173,1.87973.70257,2.36751A13.23721,13.23721,0,0,0,807.38239,453.06063Zm-12.99471-.3434a3.13287,3.13287,0,0,0,.68476-2.11528c-.08915-1.13211-3.21979-3.52378-4.85383-3.60166-.21.16794-1.03462.50228-1.09548.94236-.135.97639-.23921,2.29009.28908,2.94562" transform="translate(-49.5 -50)"/></g><path class="cls-3" d="M401.54591,272.112c-5.24191.07113-10.20969-.92788-14.35786-3.60567-6.95185-4.48765-12.26455-11.58483-10.60327-21.50773.36252-2.16532,1.648-3.79994,2.72881-5.52975,1.34686-2.1557,2.67357-4.329,5.191-5.5584a10.5998,10.5998,0,0,1,5.637-1.06867,4.17,4.17,0,0,0,2.9938-.63143,7.698,7.698,0,0,1,3.72895-1.82513.69052.69052,0,0,0,.72062-.58329.87035.87035,0,0,0-.571-.93737,16.46836,16.46836,0,0,0-1.7309-.6226c-.98935-.30792-1.87273-.88662-1.76054-1.95813.11352-1.08419,1.1375-1.44245,2.14423-1.51254a8.309,8.309,0,0,0,4.0165-1.069c.4249-.269.861-.47424,1.03993-1.026.45654-1.40755,1.48078-1.38207,2.56342-.85594a1.67863,1.67863,0,0,1,.79353,2.65391c-.75684,1.12628-1.265,1.85063.21917,2.95374.99921.74266.17682,2.0789-.22385,3.1185-.15477.40156-.60855.80931-.29257,1.23417.34451.46325.9589.35054,1.4139.19525,3.30689-1.12861,5.82552.41241,8.27822,2.326a24.05984,24.05984,0,0,1,5.77825,7.33215,14.035,14.035,0,0,1,1.181,4.34373c.366,1.92221.6269,3.867.86472,5.8104a9.39511,9.39511,0,0,1-1.15009,5.98431,28.60648,28.60648,0,0,1-5.22477,7.33948C411.08158,270.63759,406.68022,272.62865,401.54591,272.112Z" transform="translate(-49.5 -50)"/><g id="KWlzrX.tif-3" data-name="KWlzrX.tif"><path class="cls-3" d="M819.24086,236.55309a57.161,57.161,0,0,0-1.76715-6.20532,36.806,36.806,0,0,0-1.82824-3.862q-.42125.05328-.84241.10645c-.27344,1.12194-.52167,2.25079-.82532,3.3645-.68011,2.49432-1.26013,5.02667-2.1264,7.45587a3.47876,3.47876,0,0,1-4.09876,2.33258,11.004,11.004,0,0,1-6.44189-3.43115c-1.22016-1.47779-1.3537-1.535-2.31336.15533a6.60206,6.60206,0,0,1-4.14978,3.23358c-1.7655.50116-4.17407-.07214-4.85022-1.4967a33.5949,33.5949,0,0,1-1.77642-5.083c-.32837-1.13379-.34937-2.35779-.69013-3.48633-.14581-.483-.75488-.8258-1.1535-1.23223-.34943.382-.85334.70605-1.02216,1.156-.83063,2.21393-1.62109,4.4458-2.334,6.70038-1.10376,3.49029-1.73792,6.95862.87994,10.15485a6.67417,6.67417,0,0,1,.68317,1.546,1.53754,1.53754,0,0,1-.75263,2.25939,1.746,1.746,0,0,0-.8255,1.25568,5.63788,5.63788,0,0,0,1.546,3.5188c-.37323,1.71655.27155,3.81995,1.36517,5.79413-.37121,2.73584,2.54267,7.00647,5.3349,7.72351a6.85651,6.85651,0,0,1,4.20539,2.86633c1.74017,2.49957,3.54663,2.70227,6.09607,1.13678a47.64746,47.64746,0,0,1,5.99164-3.3692,8.27169,8.27169,0,0,0,4.40673-4.00739,13.58605,13.58605,0,0,0,.71436-2.71661c-.27606.08167-.55316.1604-.83008.2395a21.11656,21.11656,0,0,0,3.768-5.95483,4.94616,4.94616,0,0,0,.46093-2.2887l.03949-.0343a3.38957,3.38957,0,0,0,.77741-4.08063c-.97882-2.26257-.41553-4.17437.97607-6.02008A9.00707,9.00707,0,0,0,819.24086,236.55309Z" transform="translate(-49.5 -50)"/><path class="cls-4" d="M785.978,260.428c-.70295,2.70366,2.35693,7.33632,5.27414,8.08546a6.85632,6.85632,0,0,1,4.20538,2.86636c1.74014,2.49953,3.5466,2.70223,6.09607,1.13672a47.65278,47.65278,0,0,1,5.9916-3.36919,8.27143,8.27143,0,0,0,4.40678-4.00738,13.588,13.588,0,0,0,.71437-2.7166c-.98489.2913-1.9813.5501-2.94771.89349-.294.10448-.51029.4371-.75363.674-.68365.66562-1.35077,1.34872-2.04652,2.00132-1.15874,1.08688-2.33835,1.48536-3.75126.31527a1.903,1.903,0,0,0-1.67993-.3452c-2.0888,1.3813-3.94227,1.11589-5.77347-.7989-1.38276,2.44224-2.71747,1.08309-3.94725.1297-.88578-.6867-1.54353-1.66246-2.40658-2.38546C788.31007,262.0281,787.15146,261.27861,785.978,260.428Z" transform="translate(-49.5 -50)"/><path class="cls-4" d="M815.64544,226.48579a36.7941,36.7941,0,0,1,1.82823,3.862,57.14593,57.14593,0,0,1,1.76715,6.20529,9.00707,9.00707,0,0,1-1.3827,7.73121c-1.39165,1.84569-1.95491,3.75752-.97607,6.02007a3.38957,3.38957,0,0,1-.77745,4.08064,15.45646,15.45646,0,0,1-4.6687,3.21182,6.19552,6.19552,0,0,0-3.55353,2.8621c-1.45027,2.4216-1.90612,2.46523-4.24154,1.08907a5.0119,5.0119,0,0,0-2.49524-.17769c-1.13282.03865-2.26249.17789-3.39271.28261-1.41441.13106-2.82606.32815-4.243.37646a2.07668,2.07668,0,0,1-1.507-.51959,7.457,7.457,0,0,1-1.17158-2.23744,3.42853,3.42853,0,0,0-2.98509-2.39643A6.06945,6.06945,0,0,1,783.006,251.477a1.746,1.746,0,0,1,.8255-1.25568,1.53756,1.53756,0,0,0,.75261-2.25941,6.67276,6.67276,0,0,0-.68314-1.54595c-2.61788-3.19626-1.98374-6.66454-.88-10.15486.713-2.25457,1.50345-4.48645,2.33406-6.70037.16881-.44993.67273-.774,1.02217-1.156.39859.40649,1.00771.74931,1.15352,1.23225.34073,1.12854.36174,2.35257.69007,3.48634a33.59994,33.59994,0,0,0,1.77643,5.083c.67615,1.42453,3.08476,1.99784,4.85025,1.49669a6.60234,6.60234,0,0,0,4.14979-3.2336c.95964-1.69028,1.09322-1.6331,2.31332-.15531a11.004,11.004,0,0,0,6.4419,3.43113,3.47879,3.47879,0,0,0,4.09878-2.33258c.86628-2.42919,1.44628-4.96155,2.12636-7.45585.30366-1.11371.55194-2.24254.82536-3.3645Zm-8.26305,25.04329c1.86107.08332,4.32247-1.9547,4.55489-3.61911.19866-1.4227-1.27453-2.97258-2.4516-2.36192a20.19518,20.19518,0,0,0-4.42233,3.14822c-.94245.88-.48173,1.87973.70257,2.36751A13.239,13.239,0,0,0,807.38239,251.52908Zm-12.99471-.34341a3.13283,3.13283,0,0,0,.68476-2.11527c-.08915-1.13211-3.21979-3.52378-4.85383-3.60167-.21.168-1.03462.50229-1.09548.94237-.135.97639-.23921,2.29009.28908,2.94562" transform="translate(-49.5 -50)"/></g><g id="zBH2f9.tif-2" data-name="zBH2f9.tif"><path class="cls-5" d="M401.54591,272.112c-5.24191.07113-10.20969-.92788-14.35786-3.60567-6.95185-4.48765-12.26455-11.58483-10.60327-21.50773.36252-2.16532,1.648-3.79994,2.72881-5.52975,1.34686-2.1557,2.67357-4.329,5.191-5.5584a10.5998,10.5998,0,0,1,5.637-1.06867,4.17,4.17,0,0,0,2.9938-.63143,7.698,7.698,0,0,1,3.72895-1.82513.69052.69052,0,0,0,.72062-.58329.87035.87035,0,0,0-.571-.93737,16.46836,16.46836,0,0,0-1.7309-.6226c-.98935-.30792-1.87273-.88662-1.76054-1.95813.11352-1.08419,1.1375-1.44245,2.14423-1.51254a8.309,8.309,0,0,0,4.0165-1.069c.4249-.269.861-.47424,1.03993-1.026.45654-1.40755,1.48078-1.38207,2.56342-.85594a1.67863,1.67863,0,0,1,.79353,2.65391c-.75684,1.12628-1.265,1.85063.21917,2.95374.99921.74266.17682,2.0789-.22385,3.1185-.15477.40156-.60855.80931-.29257,1.23417.34451.46325.9589.35054,1.4139.19525,3.30689-1.12861,5.82552.41241,8.27822,2.326a24.05984,24.05984,0,0,1,5.77825,7.33215,14.035,14.035,0,0,1,1.181,4.34373c.366,1.92221.6269,3.867.86472,5.8104a9.39511,9.39511,0,0,1-1.15009,5.98431,28.60648,28.60648,0,0,1-5.22477,7.33948C411.08158,270.63759,406.68022,272.62865,401.54591,272.112ZM397.422,255.50226a1.93476,1.93476,0,0,0-1.81488,1.39274c-.29586,1.29646-1.03294,1.56759-2.20518,1.38757a1.33231,1.33231,0,0,0-1.65289,1.07828c-.24923,1.27519-.64605,2.28882-2.08136,2.70876-.67124.19639-.873.9795-.66526,1.72081.13876.49509.30148.9884.91326,1.07857a1.22165,1.22165,0,0,0,1.31177-.83631,1.33474,1.33474,0,0,1,.98564-.83436,3,3,0,0,0,2.41774-1.85872c.28326-.611.68507-.54368,1.24134-.30947a3.33226,3.33226,0,0,0,4.13115-.70615.88673.88673,0,0,1,1.449-.06717c1.15977,1.13827,2.58066.97488,4.051,1.11558,1.60126.15323,3.45479.077,4.71668,1.496.43417.48825.732,1.27132,1.57157.89382a1.40991,1.40991,0,0,0,.68546-1.59474c-.099-.77471-.42729-1.49-1.35294-1.40724-1.31232.11731-1.64312-.61329-1.75583-1.69808-.12352-1.1888-.76885-2.07137-1.99011-1.51659-1.21362.55132-1.76644.165-2.26416-.824a2.06412,2.06412,0,0,0-2.20718-1.18747c-1.02518.079-1.40567.76394-1.7081,1.60348-.15771.4378-.07978,1.16694-.73469,1.16223-.55884-.004-.73187-.64558-.92007-1.09629C399.15574,256.27365,398.69587,255.47418,397.422,255.50226Zm-8.73751-12.75221a8.47134,8.47134,0,0,0-5.71154,3.1478,4.27965,4.27965,0,0,0-.708,4.69162,5.95582,5.95582,0,0,0,4.81785,3.43275c1.86364-.00572,3.25106-1.07143,4.06414-3.20538a10.62212,10.62212,0,0,0,.87782-2.88919C392.2796,244.35389,391.33151,242.6652,388.68449,242.75005Zm23.87639,10.2647c2.28337.07022,4.62117-1.9502,4.42028-3.86976-.39988-3.82091-2.575-5.21087-5.7196-5.87254a2.97009,2.97009,0,0,0-3.89193,2.52923C406.652,249.1678,408.6826,253.15177,412.56088,253.01475Zm-11.2222-2.28362c.85865.07392,1.284-.21284,1.15729-1.04811a5.10922,5.10922,0,0,0-1.39611-2.99569,1.79926,1.79926,0,0,0-2.98446.32575,10.36189,10.36189,0,0,0-1.08,2.80893c-.21194.95585.33767,1.67425,1.32741,1.23838A3.74658,3.74658,0,0,1,401.33868,250.73113Zm2.3137,12.30853c-1.02516.10123-1.69554.42081-1.98379,1.15739-.39064.99826.3392,1.73315.88,2.38951.4998.6066,1.11655.16735,1.62645-.22156.40295-.30734.918-.7463,1.28389-.12976.60206,1.0145,1.38772.96112,2.30861.666.70348-.22541,1.5148,1.06507,1.93767.20678.45284-.91916-1.0072-.8852-1.39655-1.57308C407.25452,263.67253,404.85687,264.298,403.65238,263.03966Zm-2.64967,1.65712a1.57253,1.57253,0,0,0-1.19638-1.27456,2.0885,2.0885,0,0,0-2.51029.8619c-.575.82722-1.03587,1.38754-2.218,1.20235-.95746-.15-1.4155.74826-1.66872,1.58744a.69469.69469,0,0,0,.53961.90065c.811.24822,1.64077.22127,2.0523-.613.52777-1.07,1.08921-.90773,1.987-.44817A2.19393,2.19393,0,0,0,401.00271,264.69678Z" transform="translate(-49.5 -50)"/></g><g id="zBH2f9.tif-3" data-name="zBH2f9.tif"><path class="cls-3" d="M401.54591,174.27131c-5.24191.07113-10.20969-.92788-14.35786-3.60567-6.95185-4.48765-12.26455-11.58483-10.60327-21.50773.36252-2.16532,1.648-3.79993,2.72881-5.52975,1.34686-2.1557,2.67357-4.329,5.191-5.5584a10.5998,10.5998,0,0,1,5.637-1.06867,4.17,4.17,0,0,0,2.9938-.63143,7.698,7.698,0,0,1,3.72895-1.82513.69052.69052,0,0,0,.72062-.58329.87036.87036,0,0,0-.571-.93737,16.46836,16.46836,0,0,0-1.7309-.6226c-.98935-.30792-1.87273-.88662-1.76054-1.95813.11352-1.08419,1.1375-1.44245,2.14423-1.51254a8.30884,8.30884,0,0,0,4.0165-1.069c.4249-.269.861-.47424,1.03993-1.026.45654-1.40756,1.48078-1.38208,2.56342-.856a1.67864,1.67864,0,0,1,.79353,2.65392c-.75684,1.12627-1.265,1.85062.21917,2.95373.99921.74266.17682,2.0789-.22385,3.1185-.15477.40156-.60855.80931-.29257,1.23418.34451.46324.9589.35053,1.4139.19524,3.30689-1.12861,5.82552.41241,8.27822,2.326a24.05984,24.05984,0,0,1,5.77825,7.33215,14.035,14.035,0,0,1,1.181,4.34373c.366,1.92221.6269,3.867.86472,5.8104a9.3951,9.3951,0,0,1-1.15009,5.98431,28.60648,28.60648,0,0,1-5.22477,7.33948C411.08158,172.7969,406.68022,174.788,401.54591,174.27131Z" transform="translate(-49.5 -50)"/><path class="cls-5" d="M401.54591,174.27131c-5.24191.07113-10.20969-.92788-14.35786-3.60567-6.95185-4.48765-12.26455-11.58483-10.60327-21.50773.36252-2.16532,1.648-3.79993,2.72881-5.52975,1.34686-2.1557,2.67357-4.329,5.191-5.5584a10.5998,10.5998,0,0,1,5.637-1.06867,4.17,4.17,0,0,0,2.9938-.63143,7.698,7.698,0,0,1,3.72895-1.82513.69052.69052,0,0,0,.72062-.58329.87036.87036,0,0,0-.571-.93737,16.46836,16.46836,0,0,0-1.7309-.6226c-.98935-.30792-1.87273-.88662-1.76054-1.95813.11352-1.08419,1.1375-1.44245,2.14423-1.51254a8.30884,8.30884,0,0,0,4.0165-1.069c.4249-.269.861-.47424,1.03993-1.026.45654-1.40756,1.48078-1.38208,2.56342-.856a1.67864,1.67864,0,0,1,.79353,2.65392c-.75684,1.12627-1.265,1.85062.21917,2.95373.99921.74266.17682,2.0789-.22385,3.1185-.15477.40156-.60855.80931-.29257,1.23418.34451.46324.9589.35053,1.4139.19524,3.30689-1.12861,5.82552.41241,8.27822,2.326a24.05984,24.05984,0,0,1,5.77825,7.33215,14.035,14.035,0,0,1,1.181,4.34373c.366,1.92221.6269,3.867.86472,5.8104a9.3951,9.3951,0,0,1-1.15009,5.98431,28.60648,28.60648,0,0,1-5.22477,7.33948C411.08158,172.7969,406.68022,174.788,401.54591,174.27131ZM397.422,157.66157a1.93477,1.93477,0,0,0-1.81488,1.39274c-.29586,1.29646-1.03294,1.56759-2.20518,1.38757a1.33232,1.33232,0,0,0-1.65289,1.07828c-.24923,1.27519-.64605,2.28882-2.08136,2.70876-.67124.19639-.873.97951-.66526,1.72081.13876.49509.30148.9884.91326,1.07857a1.22165,1.22165,0,0,0,1.31177-.83631,1.33474,1.33474,0,0,1,.98564-.83436,3,3,0,0,0,2.41774-1.85872c.28326-.611.68507-.54368,1.24134-.30947a3.33226,3.33226,0,0,0,4.13115-.70615.88673.88673,0,0,1,1.449-.06717c1.15977,1.13827,2.58066.97488,4.051,1.11558,1.60126.15323,3.45479.077,4.71668,1.496.43417.48825.732,1.27132,1.57157.89382a1.40991,1.40991,0,0,0,.68546-1.59474c-.099-.77471-.42729-1.49-1.35294-1.40724-1.31232.11732-1.64312-.61329-1.75583-1.69808-.12352-1.1888-.76885-2.07137-1.99011-1.51659-1.21362.55132-1.76644.165-2.26416-.824a2.06412,2.06412,0,0,0-2.20718-1.18747c-1.02518.079-1.40567.76394-1.7081,1.60348-.15771.4378-.07978,1.16694-.73469,1.16223-.55884-.004-.73187-.64558-.92007-1.09629C399.15574,158.433,398.69587,157.63349,397.422,157.66157Zm-8.73751-12.75221a8.47134,8.47134,0,0,0-5.71154,3.1478,4.27965,4.27965,0,0,0-.708,4.69162,5.9558,5.9558,0,0,0,4.81785,3.43275c1.86364-.00572,3.25106-1.07143,4.06414-3.20538a10.62212,10.62212,0,0,0,.87782-2.88919C392.2796,146.5132,391.33151,144.82451,388.68449,144.90936Zm23.87639,10.2647c2.28337.07023,4.62117-1.9502,4.42028-3.86976-.39988-3.82091-2.575-5.21087-5.7196-5.87254a2.97009,2.97009,0,0,0-3.89193,2.52923C406.652,151.32711,408.6826,155.31108,412.56088,155.17406Zm-11.2222-2.28362c.85865.07392,1.284-.21284,1.15729-1.04811a5.10922,5.10922,0,0,0-1.39611-2.99569,1.79926,1.79926,0,0,0-2.98446.32575,10.36189,10.36189,0,0,0-1.08,2.80893c-.21194.95585.33767,1.67425,1.32741,1.23838A3.74658,3.74658,0,0,1,401.33868,152.89044Zm2.3137,12.30853c-1.02516.10123-1.69554.42081-1.98379,1.15739-.39064.99826.3392,1.73316.88,2.38951.4998.6066,1.11655.16735,1.62645-.22156.40295-.30734.918-.74629,1.28389-.12976.60206,1.0145,1.38772.96112,2.30861.666.70348-.22541,1.5148,1.06507,1.93767.20678.45284-.91915-1.0072-.8852-1.39655-1.57308C407.25452,165.83185,404.85687,166.45728,403.65238,165.199Zm-2.64967,1.65712a1.57253,1.57253,0,0,0-1.19638-1.27456,2.08851,2.08851,0,0,0-2.51029.86191c-.575.82721-1.03587,1.38753-2.218,1.20234-.95746-.15-1.4155.74826-1.66872,1.58744a.69469.69469,0,0,0,.53961.90065c.811.24822,1.64077.22127,2.0523-.613.52777-1.07,1.08921-.90774,1.987-.44818A2.19393,2.19393,0,0,0,401.00271,166.85609Z" transform="translate(-49.5 -50)"/></g><path class="cls-1" d="M607.41,431.10091v36.40137H597.35137V443.64974a30.55954,30.55954,0,0,1-4.72412,3.00293,36.77585,36.77585,0,0,1-5.7251,2.19727v-8.1543a24.17236,24.17236,0,0,0,7.88574-3.93066,16.03337,16.03337,0,0,0,4.39454-5.66407Z" transform="translate(-49.5 -50)"/></g></svg>